<?xml version="1.0" encoding="utf-8"?>
<!-- Generator: Adobe Illustrator 14.0.0, SVG Export Plug-In . SVG Version: 6.00 Build 43363)  -->
<!DOCTYPE svg PUBLIC "-//W3C//DTD SVG 1.1//EN" "http://www.w3.org/Graphics/SVG/1.1/DTD/svg11.dtd">
<svg version="1.1" id="Layer_1" xmlns="http://www.w3.org/2000/svg" xmlns:xlink="http://www.w3.org/1999/xlink" x="0px" y="0px"
	 width="200px" height="200px" viewBox="0 0 200 200" enable-background="new 0 0 200 200" xml:space="preserve">
<g>
	<g>
		<g>
			<circle fill="#BCBEC0" cx="100" cy="100" r="82"/>
		</g>
		<g>
			<circle fill="none" stroke="#BCBEC0" stroke-width="4" cx="100" cy="100" r="82"/>
		</g>
	</g>
	<line fill="none" stroke="#000000" stroke-width="0.3" x1="16" y1="-38" x2="16" y2="-2"/>
	<line fill="none" stroke="#000000" stroke-width="0.3" x1="-38" y1="16" x2="-2" y2="16"/>
	<line fill="none" stroke="#000000" stroke-width="0.3" x1="-38" y1="184" x2="-2" y2="184"/>
	<line fill="none" stroke="#000000" stroke-width="0.3" x1="16" y1="238" x2="16" y2="202"/>
	<line fill="none" stroke="#000000" stroke-width="0.3" x1="184" y1="-38" x2="184" y2="-2"/>
	<line fill="none" stroke="#000000" stroke-width="0.3" x1="238" y1="16" x2="202" y2="16"/>
	<line fill="none" stroke="#000000" stroke-width="0.3" x1="238" y1="184" x2="202" y2="184"/>
	<line fill="none" stroke="#000000" stroke-width="0.3" x1="184" y1="238" x2="184" y2="202"/>
</g>
<g>
	<g>
		<path fill="#FFFFFF" stroke="#FFFFFF" stroke-width="4" d="M111.094,98.194c-1.6,0.668-12.594,5.365-14.459,6.031
			c1.065,4.269,2,8.469,2.8,12.6c0.8,4.135,1.466,8.334,2,12.6c0.266,2.666,0.4,5.701,0.4,9.101s-0.4,6.431-1.2,9.101
			c-1.334,4.799-3.769,8.165-7.3,10.1c-3.535,1.932-7.469,2.73-11.8,2.4c-4.334-0.335-8.634-1.535-12.9-3.601
			c-4.269-2.069-7.769-4.669-10.5-7.8c-2.734-3.135-4.3-6.669-4.7-10.6c-0.4-3.936,1.131-7.835,4.6-11.701
			c2.8-3.199,5.531-5.865,8.2-8c2.666-2.131,5.866-4.33,9.6-6.6c2.666-1.73,5.4-3.365,8.2-4.9
			c2.8-1.531,23.224-10.527,26.292-11.862 M95.034,152.625c2-2.535,3.2-5.801,3.6-9.801s0.366-8.234-0.1-12.699
			c-0.469-4.467-1.2-8.866-2.2-13.201c-1-4.33-1.9-8.1-2.7-11.299c-3.869,1.734-7.834,3.699-11.9,5.899
			c-4.069,2.2-7.869,4.569-11.4,7.101c-3.535,2.533-6.535,5.234-9,8.1c-2.469,2.865-3.969,5.9-4.5,9.1
			c-0.4,2.531,0.031,4.966,1.3,7.301c1.266,2.33,3.031,4.465,5.3,6.399c2.266,1.931,4.9,3.531,7.9,4.8c3,1.266,5.965,2.1,8.9,2.5
			c2.931,0.4,5.731,0.301,8.4-0.3C91.3,155.924,93.434,154.625,95.034,152.625z"/>
	</g>
	<g>
		<path fill="#FFFFFF" stroke="#FFFFFF" stroke-width="4" d="M110.326,95.062c-1.357-5.883-2.716-11.796-4.08-17.748
			c-1.365-5.948-2.525-11.888-3.483-17.817c0.142-1.089,0.61-1.682,1.404-1.774c0.795-0.092,1.377,0.312,1.752,1.206
			c0.824,5.945,1.941,11.789,3.349,17.53c1.405,5.745,2.786,11.555,4.145,17.438c4.908-1.644,9.939-3.102,15.096-4.375
			c5.153-1.27,10.299-2.337,15.434-3.206c-1.046-5.516-2.049-10.937-3.003-16.262c-0.955-5.325-1.824-10.761-2.602-16.309
			c0.141-1.089,0.579-1.644,1.316-1.664c0.733-0.016,1.279,0.354,1.64,1.118c0.778,5.547,1.682,10.979,2.703,16.297
			c1.021,5.317,2.054,10.734,3.1,16.251c0.78-0.224,1.532-0.38,2.262-0.465c0.726-0.084,1.49-0.173,2.284-0.266
			c1.059-0.123,1.709,0.273,1.95,1.183c0.238,0.913-0.154,1.563-1.183,1.95c-0.796,0.092-1.589,0.185-2.385,0.277
			c-0.793,0.092-1.515,0.246-2.161,0.453c0.804,4.607,1.604,9.176,2.4,13.714c0.796,4.539,5.532,29.119,6.205,33.738
			c0.123,1.058-0.244,1.67-1.095,1.838c-0.856,0.166-1.475-0.266-1.862-1.293c-0.807-4.604-5.575-29.211-6.314-33.825
			c-0.737-4.611-1.576-9.21-2.514-13.802c-10.55,1.63-20.71,4.292-30.481,7.978c0.649,3.281,1.337,6.59,2.062,9.929
			c0.722,3.339,5.345,26.658,5.863,29.951c0.139,1.191-0.258,1.842-1.183,1.949c-0.929,0.108-1.521-0.357-1.774-1.403
			c-1.152-6.441-6.512-32.928-8.077-39.459"/>
	</g>
	<g>
		<path fill="#FFFFFF" stroke="#FFFFFF" stroke-width="4" d="M88.119,50.528c-3.742,1.611-7.456,3.21-11.141,4.789
			c3.884,7.897,7.41,15.903,10.576,24.018c3.17,8.114,6.504,16.324,9.08,24.89c-0.109,0.954-1.018,1.682-1.79,1.928
			c-0.774,0.244-0.724,0.424-1.21-0.527c-2.395-8.507-5.855-17.272-9.023-25.237c-3.166-7.962-6.689-15.896-10.574-23.794
			c-3.981,1.583-7.889,3.241-11.721,4.973c-3.831,1.731-17.705,8.449-21.629,10.15c-1.07,0.248-1.758-0.074-2.065-0.967
			c-0.304-0.891,0.017-1.58,0.966-2.065c7.96-3.762,26.04-12.289,34.241-15.577c8.202-3.289,25.283-10.813,33.241-14.578
			c0.895-0.008,1.51,0.317,1.842,0.969c0.334,0.654,0.088,1.341-0.743,2.062C104.547,43.263,91.866,48.918,88.119,50.528z"/>
	</g>
</g>
</svg>
